<mxfile host="65bd71144e">
    <diagram id="fF3nTVfvyFjjyXhv16_0" name="Page-1">
        <mxGraphModel dx="761" dy="601" grid="1" gridSize="10" guides="1" tooltips="1" connect="1" arrows="1" fold="1" page="1" pageScale="1" pageWidth="827" pageHeight="1169" background="#FFFFFF" math="0" shadow="0">
            <root>
                <mxCell id="0"/>
                <mxCell id="1" parent="0"/>
                <mxCell id="2" value="Dart source" style="whiteSpace=wrap;html=1;aspect=fixed;" vertex="1" parent="1">
                    <mxGeometry x="223" y="464" width="80" height="80" as="geometry"/>
                </mxCell>
                <mxCell id="3" value="" style="endArrow=classic;html=1;strokeColor=#000000;" edge="1" parent="1">
                    <mxGeometry width="50" height="50" relative="1" as="geometry">
                        <mxPoint x="303" y="504" as="sourcePoint"/>
                        <mxPoint x="383" y="504" as="targetPoint"/>
                    </mxGeometry>
                </mxCell>
                <mxCell id="4" value="AOT Compilation" style="whiteSpace=wrap;html=1;aspect=fixed;" vertex="1" parent="1">
                    <mxGeometry x="383" y="464" width="80" height="80" as="geometry"/>
                </mxCell>
                <mxCell id="7" value="" style="endArrow=classic;html=1;exitX=1;exitY=0.5;exitDx=0;exitDy=0;rounded=0;labelBackgroundColor=none;labelBorderColor=#000000;strokeColor=#000000;" edge="1" parent="1" source="4">
                    <mxGeometry width="50" height="50" relative="1" as="geometry">
                        <mxPoint x="476.03999999999996" y="506" as="sourcePoint"/>
                        <mxPoint x="543" y="464" as="targetPoint"/>
                        <Array as="points">
                            <mxPoint x="503" y="504"/>
                            <mxPoint x="503" y="464"/>
                        </Array>
                    </mxGeometry>
                </mxCell>
                <mxCell id="11" value="" style="endArrow=classic;html=1;rounded=0;labelBackgroundColor=none;labelBorderColor=#000000;strokeColor=#000000;" edge="1" parent="1">
                    <mxGeometry width="50" height="50" relative="1" as="geometry">
                        <mxPoint x="463" y="504" as="sourcePoint"/>
                        <mxPoint x="543" y="544" as="targetPoint"/>
                        <Array as="points">
                            <mxPoint x="503" y="504"/>
                            <mxPoint x="503" y="544"/>
                        </Array>
                    </mxGeometry>
                </mxCell>
                <mxCell id="12" value="" style="endArrow=classic;html=1;labelBackgroundColor=none;labelBorderColor=#000000;strokeColor=#000000;" edge="1" parent="1" target="13">
                    <mxGeometry width="50" height="50" relative="1" as="geometry">
                        <mxPoint x="463" y="504" as="sourcePoint"/>
                        <mxPoint x="543" y="504" as="targetPoint"/>
                    </mxGeometry>
                </mxCell>
                <mxCell id="13" value=".ipa" style="text;strokeColor=none;fillColor=none;align=left;verticalAlign=top;spacingLeft=4;spacingRight=4;overflow=hidden;rotatable=0;points=[[0,0.5],[1,0.5]];portConstraint=eastwest;fontColor=#000000;" vertex="1" parent="1">
                    <mxGeometry x="543" y="491" width="60" height="26" as="geometry"/>
                </mxCell>
                <mxCell id="14" value=".exe, .bin" style="text;strokeColor=none;fillColor=none;align=left;verticalAlign=top;spacingLeft=4;spacingRight=4;overflow=hidden;rotatable=0;points=[[0,0.5],[1,0.5]];portConstraint=eastwest;fontColor=#000000;" vertex="1" parent="1">
                    <mxGeometry x="543" y="531" width="60" height="26" as="geometry"/>
                </mxCell>
                <mxCell id="15" value=".apk / .aab" style="text;strokeColor=none;fillColor=none;align=left;verticalAlign=top;spacingLeft=4;spacingRight=4;overflow=hidden;rotatable=0;points=[[0,0.5],[1,0.5]];portConstraint=eastwest;fontColor=#000000;" vertex="1" parent="1">
                    <mxGeometry x="543" y="450" width="77" height="30" as="geometry"/>
                </mxCell>
            </root>
        </mxGraphModel>
    </diagram>
</mxfile>